<svg xmlns="http://www.w3.org/2000/svg" width="64" height="64" version="1.0" viewBox="0 0 48 48"><defs><clipPath id="a"><path d="M.488 0h41.145v47H.488Zm0 0"/></clipPath></defs><g clip-path="url(#a)"><path fill="#2b090b" d="M23.57.215c-1.218 1.164-2.578 1.906-3.78 2.863-1.352 1.078-2.403 2.399-3.294 3.844-1.164 1.887-1.68 4.043-2.187 6.164-.563 2.363-.856 4.781-.715 7.223.094 1.546.199 3.132.754 4.574.597 1.55 1.593 2.918 2.504 4.316 1.585 2.438 3.894 3.883 6.418 5.102 2.28 1.11 4.668 1.84 7.132 2.355 2.743.57 5.473.469 8.196-.086.695-.14 1.379-.308 2.062-.468.348-.075.668.027.836.34.133.242.094.503-.148.738-1.758 1.726-3.391 3.586-5.368 5.058-3.203 2.39-6.722 4.043-10.746 4.5-2.468.282-4.91.215-7.351-.175-1.012-.16-1.903-.735-2.871-1.083-2.88-1.05-5.207-2.906-7.508-4.867-3.106-2.644-4.992-6.011-6.145-9.855-.789-2.63-.863-5.328-.78-8.04.151-4.812 1.96-9.062 4.644-12.937 2.246-3.242 5.164-5.84 8.75-7.578C16.363 1.06 18.906.348 21.602.207 22.23.18 22.848 0 23.57.215Zm0 0"/></g></svg>